<?xml version="1.0" standalone="no"?><!DOCTYPE svg PUBLIC "-//W3C//DTD SVG 1.1//EN" "http://www.w3.org/Graphics/SVG/1.1/DTD/svg11.dtd"><svg width="100%" height="100%" viewBox="0 0 130 106" version="1.1" xmlns="http://www.w3.org/2000/svg" xmlns:xlink="http://www.w3.org/1999/xlink" xml:space="preserve" style="fill-rule:evenodd;clip-rule:evenodd;stroke-linejoin:round;stroke-miterlimit:1.41421;"><path d="M3.773,103.416l79.948,0c2.086,0 3.778,-1.69 3.778,-3.768l0,-49.589c0,-2.097 -1.177,-5.003 -2.617,-6.518l-22.313,-23.341c-1.443,-1.515 -4.307,-2.729 -6.393,-2.729l-9.217,0c4.472,-9.395 15.049,-14.459 27.359,-8.542c8.447,4.057 15.317,11.396 21.692,18.516l-6.592,6.6l25.304,25.292l15.278,-15.278l-25.305,-25.302l-5.686,5.699c-10.256,-11.345 -22.741,-24.019 -38.651,-22.626c-9.652,0.839 -15.652,7.492 -18.298,15.641l-10.734,0c-2.096,0 -4.95,1.214 -6.393,2.729l-22.329,23.341c-1.429,1.515 -2.601,4.421 -2.601,6.507l0,49.59c0,2.088 1.692,3.778 3.778,3.778M104.475,29.438c1.203,1.214 1.203,3.165 0,4.379c-1.215,1.203 -3.165,1.203 -4.379,0c-0.736,-0.736 -0.965,-1.743 -0.8,-2.7c0.404,0.447 0.811,0.914 1.214,1.361c1.847,2.035 4.847,-0.986 3.011,-3.011c-0.25,-0.268 -0.508,-0.56 -0.768,-0.839c0.622,0.093 1.235,0.332 1.722,0.81M41.861,37.199c0.81,2.617 4.91,1.496 4.099,-1.129c-0.146,-0.478 -0.271,-0.967 -0.395,-1.443c1.235,0.654 2.088,1.94 2.088,3.425c0,2.147 -1.756,3.9 -3.903,3.9c-2.15,0 -3.893,-1.753 -3.893,-3.9c0,-1.214 0.572,-2.296 1.454,-3.01c0.164,0.725 0.332,1.464 0.55,2.157M7.214,47.952l22.295,-23.32c0.342,-0.322 1.371,-0.758 1.806,-0.789l9.393,0c-0.165,1.503 -0.24,3.01 -0.218,4.514c-4.068,1.371 -7.025,5.178 -7.025,9.706c0,5.656 4.607,10.263 10.274,10.263c5.667,0 10.275,-4.607 10.275,-10.263c0,-5.341 -4.121,-9.696 -9.332,-10.182c0,-1.381 0.104,-2.731 0.303,-4.038l11.157,0c0.467,0.042 1.482,0.478 1.804,0.757l22.305,23.341c0.353,0.407 0.832,1.6 0.85,2.118l0,46.985l-74.74,0l0,-46.975c0.032,-0.528 0.51,-1.732 0.85,-2.117" style="fill:#795548;fill-rule:nonzero;"/><path d="M12.451,93.67l62.582,0c1.328,0 2.418,-1.079 2.418,-2.418l0,-22.345l-0.051,0c0.011,-0.146 0.04,-0.268 0.04,-0.425c0,-3.478 -2.822,-6.3 -6.3,-6.3c-1.007,0 -1.939,0.258 -2.781,0.686c-0.633,-0.978 -1.722,-1.631 -2.979,-1.631c-0.175,0 -0.351,0.031 -0.518,0.053c-1.297,-1.193 -3.01,-1.942 -4.91,-1.942c-3.414,0 -6.257,2.377 -7.025,5.563c-0.779,-0.529 -1.724,-0.839 -2.729,-0.839c-1.599,0 -3.01,0.789 -3.903,1.982c-1.381,-1.183 -3.799,-1.982 -6.57,-1.982c-2.958,0 -5.511,0.914 -6.829,2.25c-0.56,-0.321 -1.203,-0.518 -1.9,-0.518c-0.643,0 -1.246,0.178 -1.785,0.446c-0.25,-1.753 -1.743,-3.124 -3.571,-3.124c-1.461,0 -2.707,0.871 -3.279,2.117c-0.685,-0.228 -1.4,-0.382 -2.149,-0.382c-2.24,0 -4.203,1.089 -5.447,2.739c-0.478,-0.685 -1.225,-1.164 -2.118,-1.164c-1.402,0 -2.513,1.092 -2.585,2.471l-0.032,0l0,22.345c0,1.339 1.082,2.418 2.421,2.418" style="fill:#795548;fill-rule:nonzero;"/></svg>